<mxfile host="app.diagrams.net" modified="2021-07-23T09:01:20.375Z" agent="5.0 (Windows NT 10.0; Win64; x64) AppleWebKit/537.36 (KHTML, like Gecko) Chrome/91.0.4472.124 Safari/537.36" etag="BMAijehHE-wyXyfNjSj3" version="14.9.0" type="github">
  <diagram id="KX9cV-MlKl8TlEkXdfTV" name="Page-1">
    <mxGraphModel dx="948" dy="588" grid="1" gridSize="10" guides="1" tooltips="1" connect="1" arrows="1" fold="1" page="1" pageScale="1" pageWidth="827" pageHeight="1169" math="0" shadow="0">
      <root>
        <mxCell id="0" />
        <mxCell id="1" parent="0" />
        <mxCell id="Qe1qh0-NkXsi1-zfPD02-35" value="" style="rounded=0;whiteSpace=wrap;html=1;" vertex="1" parent="1">
          <mxGeometry x="177.5" y="185" width="265" height="245" as="geometry" />
        </mxCell>
        <mxCell id="Qe1qh0-NkXsi1-zfPD02-2" style="edgeStyle=orthogonalEdgeStyle;rounded=0;orthogonalLoop=1;jettySize=auto;html=1;entryX=0;entryY=0.5;entryDx=0;entryDy=0;" edge="1" parent="1" source="Qe1qh0-NkXsi1-zfPD02-1" target="Qe1qh0-NkXsi1-zfPD02-3">
          <mxGeometry relative="1" as="geometry">
            <mxPoint x="240" y="100" as="targetPoint" />
          </mxGeometry>
        </mxCell>
        <mxCell id="Qe1qh0-NkXsi1-zfPD02-4" value="proposal ID" style="edgeLabel;html=1;align=center;verticalAlign=middle;resizable=0;points=[];" vertex="1" connectable="0" parent="Qe1qh0-NkXsi1-zfPD02-2">
          <mxGeometry x="-0.2718" relative="1" as="geometry">
            <mxPoint x="13" y="-10" as="offset" />
          </mxGeometry>
        </mxCell>
        <mxCell id="Qe1qh0-NkXsi1-zfPD02-1" value="Start" style="ellipse;whiteSpace=wrap;html=1;aspect=fixed;fillColor=#f5f5f5;strokeColor=#666666;fontColor=#333333;" vertex="1" parent="1">
          <mxGeometry x="80" y="80" width="40" height="40" as="geometry" />
        </mxCell>
        <mxCell id="Qe1qh0-NkXsi1-zfPD02-19" style="edgeStyle=orthogonalEdgeStyle;rounded=0;orthogonalLoop=1;jettySize=auto;html=1;entryX=0.5;entryY=0;entryDx=0;entryDy=0;" edge="1" parent="1" source="Qe1qh0-NkXsi1-zfPD02-3" target="Qe1qh0-NkXsi1-zfPD02-35">
          <mxGeometry relative="1" as="geometry" />
        </mxCell>
        <mxCell id="Qe1qh0-NkXsi1-zfPD02-34" value="contract" style="edgeLabel;html=1;align=center;verticalAlign=middle;resizable=0;points=[];" vertex="1" connectable="0" parent="Qe1qh0-NkXsi1-zfPD02-19">
          <mxGeometry x="-0.2833" y="-1" relative="1" as="geometry">
            <mxPoint as="offset" />
          </mxGeometry>
        </mxCell>
        <mxCell id="Qe1qh0-NkXsi1-zfPD02-3" value="Get Active Proposals" style="rounded=1;whiteSpace=wrap;html=1;fillColor=#ffe6cc;strokeColor=#d79b00;" vertex="1" parent="1">
          <mxGeometry x="250" y="80" width="120" height="40" as="geometry" />
        </mxCell>
        <mxCell id="Qe1qh0-NkXsi1-zfPD02-7" style="edgeStyle=orthogonalEdgeStyle;rounded=0;orthogonalLoop=1;jettySize=auto;html=1;entryX=1;entryY=0.25;entryDx=0;entryDy=0;" edge="1" parent="1" source="Qe1qh0-NkXsi1-zfPD02-6" target="Qe1qh0-NkXsi1-zfPD02-3">
          <mxGeometry relative="1" as="geometry" />
        </mxCell>
        <mxCell id="Qe1qh0-NkXsi1-zfPD02-6" value="Contract Service" style="rounded=0;whiteSpace=wrap;html=1;fillColor=#e1d5e7;strokeColor=#9673a6;" vertex="1" parent="1">
          <mxGeometry x="440" y="60" width="120" height="30" as="geometry" />
        </mxCell>
        <mxCell id="Qe1qh0-NkXsi1-zfPD02-9" style="edgeStyle=orthogonalEdgeStyle;rounded=0;orthogonalLoop=1;jettySize=auto;html=1;entryX=1;entryY=0.75;entryDx=0;entryDy=0;" edge="1" parent="1" source="Qe1qh0-NkXsi1-zfPD02-8" target="Qe1qh0-NkXsi1-zfPD02-3">
          <mxGeometry relative="1" as="geometry" />
        </mxCell>
        <mxCell id="Qe1qh0-NkXsi1-zfPD02-8" value="Workflow Service" style="rounded=0;whiteSpace=wrap;html=1;fillColor=#e1d5e7;strokeColor=#9673a6;" vertex="1" parent="1">
          <mxGeometry x="440" y="110" width="120" height="30" as="geometry" />
        </mxCell>
        <mxCell id="Qe1qh0-NkXsi1-zfPD02-23" style="edgeStyle=orthogonalEdgeStyle;rounded=0;orthogonalLoop=1;jettySize=auto;html=1;entryX=0.5;entryY=0;entryDx=0;entryDy=0;" edge="1" parent="1" source="Qe1qh0-NkXsi1-zfPD02-18" target="Qe1qh0-NkXsi1-zfPD02-22">
          <mxGeometry relative="1" as="geometry" />
        </mxCell>
        <mxCell id="Qe1qh0-NkXsi1-zfPD02-18" value="Get Change Details" style="rounded=1;whiteSpace=wrap;html=1;fillColor=#ffe6cc;strokeColor=#d79b00;" vertex="1" parent="1">
          <mxGeometry x="250" y="210" width="120" height="40" as="geometry" />
        </mxCell>
        <mxCell id="Qe1qh0-NkXsi1-zfPD02-21" style="edgeStyle=orthogonalEdgeStyle;rounded=0;orthogonalLoop=1;jettySize=auto;html=1;entryX=1;entryY=0.5;entryDx=0;entryDy=0;" edge="1" parent="1" source="Qe1qh0-NkXsi1-zfPD02-20" target="Qe1qh0-NkXsi1-zfPD02-18">
          <mxGeometry relative="1" as="geometry">
            <mxPoint x="370" y="240" as="targetPoint" />
          </mxGeometry>
        </mxCell>
        <mxCell id="Qe1qh0-NkXsi1-zfPD02-24" value="Item Change Attributes" style="edgeLabel;html=1;align=center;verticalAlign=middle;resizable=0;points=[];" vertex="1" connectable="0" parent="Qe1qh0-NkXsi1-zfPD02-21">
          <mxGeometry x="-0.1515" y="-1" relative="1" as="geometry">
            <mxPoint x="-7" y="1" as="offset" />
          </mxGeometry>
        </mxCell>
        <mxCell id="Qe1qh0-NkXsi1-zfPD02-20" value="Product Service" style="rounded=0;whiteSpace=wrap;html=1;fillColor=#e1d5e7;strokeColor=#9673a6;" vertex="1" parent="1">
          <mxGeometry x="520" y="215" width="120" height="30" as="geometry" />
        </mxCell>
        <mxCell id="Qe1qh0-NkXsi1-zfPD02-31" style="edgeStyle=orthogonalEdgeStyle;rounded=0;orthogonalLoop=1;jettySize=auto;html=1;entryX=0.5;entryY=0;entryDx=0;entryDy=0;" edge="1" parent="1" source="Qe1qh0-NkXsi1-zfPD02-22" target="Qe1qh0-NkXsi1-zfPD02-30">
          <mxGeometry relative="1" as="geometry" />
        </mxCell>
        <mxCell id="Qe1qh0-NkXsi1-zfPD02-22" value="Build Change Details" style="rounded=1;whiteSpace=wrap;html=1;fillColor=#ffe6cc;strokeColor=#d79b00;" vertex="1" parent="1">
          <mxGeometry x="250" y="290" width="120" height="40" as="geometry" />
        </mxCell>
        <mxCell id="Qe1qh0-NkXsi1-zfPD02-27" style="edgeStyle=orthogonalEdgeStyle;rounded=0;orthogonalLoop=1;jettySize=auto;html=1;entryX=1;entryY=0.5;entryDx=0;entryDy=0;" edge="1" parent="1" source="Qe1qh0-NkXsi1-zfPD02-26" target="Qe1qh0-NkXsi1-zfPD02-22">
          <mxGeometry relative="1" as="geometry" />
        </mxCell>
        <mxCell id="Qe1qh0-NkXsi1-zfPD02-28" value="Latest Item Info" style="edgeLabel;html=1;align=center;verticalAlign=middle;resizable=0;points=[];" vertex="1" connectable="0" parent="Qe1qh0-NkXsi1-zfPD02-27">
          <mxGeometry x="0.2356" y="-1" relative="1" as="geometry">
            <mxPoint x="23" y="1" as="offset" />
          </mxGeometry>
        </mxCell>
        <mxCell id="Qe1qh0-NkXsi1-zfPD02-26" value="Product Service" style="rounded=0;whiteSpace=wrap;html=1;fillColor=#e1d5e7;strokeColor=#9673a6;" vertex="1" parent="1">
          <mxGeometry x="520" y="295" width="120" height="30" as="geometry" />
        </mxCell>
        <mxCell id="Qe1qh0-NkXsi1-zfPD02-33" style="edgeStyle=orthogonalEdgeStyle;rounded=0;orthogonalLoop=1;jettySize=auto;html=1;entryX=0.5;entryY=0;entryDx=0;entryDy=0;" edge="1" parent="1" source="Qe1qh0-NkXsi1-zfPD02-30" target="Qe1qh0-NkXsi1-zfPD02-32">
          <mxGeometry relative="1" as="geometry" />
        </mxCell>
        <mxCell id="Qe1qh0-NkXsi1-zfPD02-30" value="Call Strategy" style="rounded=1;whiteSpace=wrap;html=1;fillColor=#ffe6cc;strokeColor=#d79b00;" vertex="1" parent="1">
          <mxGeometry x="250" y="370" width="120" height="40" as="geometry" />
        </mxCell>
        <mxCell id="Qe1qh0-NkXsi1-zfPD02-39" style="edgeStyle=orthogonalEdgeStyle;rounded=0;orthogonalLoop=1;jettySize=auto;html=1;entryX=0;entryY=0.5;entryDx=0;entryDy=0;" edge="1" parent="1" source="Qe1qh0-NkXsi1-zfPD02-32" target="Qe1qh0-NkXsi1-zfPD02-38">
          <mxGeometry relative="1" as="geometry" />
        </mxCell>
        <mxCell id="Qe1qh0-NkXsi1-zfPD02-40" value="update workflow" style="edgeLabel;html=1;align=center;verticalAlign=middle;resizable=0;points=[];" vertex="1" connectable="0" parent="Qe1qh0-NkXsi1-zfPD02-39">
          <mxGeometry x="-0.2" relative="1" as="geometry">
            <mxPoint x="6" y="-10" as="offset" />
          </mxGeometry>
        </mxCell>
        <mxCell id="Qe1qh0-NkXsi1-zfPD02-42" style="edgeStyle=orthogonalEdgeStyle;rounded=0;orthogonalLoop=1;jettySize=auto;html=1;entryX=0;entryY=0.5;entryDx=0;entryDy=0;exitX=0.5;exitY=1;exitDx=0;exitDy=0;" edge="1" parent="1" source="Qe1qh0-NkXsi1-zfPD02-32" target="Qe1qh0-NkXsi1-zfPD02-41">
          <mxGeometry relative="1" as="geometry" />
        </mxCell>
        <mxCell id="Qe1qh0-NkXsi1-zfPD02-43" value="update contract" style="edgeLabel;html=1;align=center;verticalAlign=middle;resizable=0;points=[];" vertex="1" connectable="0" parent="Qe1qh0-NkXsi1-zfPD02-42">
          <mxGeometry x="0.4543" y="1" relative="1" as="geometry">
            <mxPoint y="-14" as="offset" />
          </mxGeometry>
        </mxCell>
        <mxCell id="Qe1qh0-NkXsi1-zfPD02-32" value="Consolidate Contract Result" style="rounded=1;whiteSpace=wrap;html=1;fillColor=#ffe6cc;strokeColor=#d79b00;" vertex="1" parent="1">
          <mxGeometry x="250" y="470" width="120" height="40" as="geometry" />
        </mxCell>
        <mxCell id="Qe1qh0-NkXsi1-zfPD02-36" value="Contract Processor" style="text;html=1;strokeColor=none;fillColor=none;align=center;verticalAlign=middle;whiteSpace=wrap;rounded=0;" vertex="1" parent="1">
          <mxGeometry x="177.5" y="185" width="120" height="20" as="geometry" />
        </mxCell>
        <mxCell id="Qe1qh0-NkXsi1-zfPD02-38" value="Workflow Service" style="rounded=0;whiteSpace=wrap;html=1;fillColor=#e1d5e7;strokeColor=#9673a6;" vertex="1" parent="1">
          <mxGeometry x="480" y="475" width="120" height="30" as="geometry" />
        </mxCell>
        <mxCell id="Qe1qh0-NkXsi1-zfPD02-41" value="Contract Service" style="rounded=0;whiteSpace=wrap;html=1;fillColor=#e1d5e7;strokeColor=#9673a6;" vertex="1" parent="1">
          <mxGeometry x="480" y="540" width="120" height="30" as="geometry" />
        </mxCell>
      </root>
    </mxGraphModel>
  </diagram>
</mxfile>
